Coordinates
version=1
nRows=13
nColumns=34
inDegrees=yes

Units are S.I. units (second, meters, Newtons, ...)
If the header above contains a line with 'inDegrees', this indicates whether rotational values are in degrees (yes) or radians (no).

endheader
time	pelvis_tilt	pelvis_list	pelvis_rotation	pelvis_tx	pelvis_ty	pelvis_tz	hip_flexion_r	hip_adduction_r	hip_rotation_r	knee_angle_r	ankle_angle_r	subtalar_angle_r	mtp_angle_r	hip_flexion_l	hip_adduction_l	hip_rotation_l	knee_angle_l	ankle_angle_l	subtalar_angle_l	mtp_angle_l	lumbar_extension	lumbar_bending	lumbar_rotation	arm_flex_r	arm_add_r	arm_rot_r	elbow_flex_r	pro_sup_r	arm_flex_l	arm_add_l	arm_rot_l	elbow_flex_l	pro_sup_l
      3.06666670	     -8.91618919	      2.36574372	      4.67330090	      1.92842092	      0.96049390	     -0.18763139	      0.67671126	     -8.18586876	    -18.00393541	      4.30791408	    -14.25596945	     -2.98550628	      0.00000000	      3.07482471	     -3.53644497	     -5.38182005	      4.37881260	    -14.60524623	      4.52336204	      0.00000000	      0.08105062	     -7.76543419	     11.40802401	    135.98309464	    -12.93644812	     24.72613581	     21.17248093	     92.17219155	    131.23705389	      6.25157531	     32.90208278	     74.84452237	     89.33043415
      3.08333330	     -9.65180980	      2.28343921	      5.04244326	      1.93465905	      0.96288767	     -0.18591850	      0.93359408	     -8.03817673	    -17.60238963	      3.61005566	    -17.07445893	     -3.17092481	      0.00000000	      3.61401814	     -3.46477536	     -5.17699809	      3.89466615	    -16.82651465	      3.39097792	      0.00000000	      0.75666551	     -8.55239207	     12.24802721	    143.46917087	    -12.29496591	     30.10447177	     12.48094166	     88.83126102	    135.41229015	      6.58530680	     34.41533028	     72.80499604	     88.21703368
      3.10000000	    -10.50751344	      1.98191347	      5.31272100	      1.94143453	      0.96330199	     -0.18569939	      1.46971154	     -7.76422038	    -16.75727386	      3.24032892	    -19.46637139	     -3.90041099	      0.00000000	      4.11053634	     -3.56467503	     -4.95235726	      3.23021700	    -19.00676723	      1.69202369	      0.00000000	      1.67517493	     -8.91017443	     12.82574480	    148.63194694	    -11.09995433	     32.79272248	      8.48309840	     86.31006671	    138.77175063	      6.50167740	     35.78204214	     71.30429451	     87.72405709
      3.11666670	    -11.54857296	      1.77383942	      5.90591765	      1.94896399	      0.96045202	     -0.18727396	      2.14960503	     -7.79859365	    -16.51062724	      3.10680926	    -21.18945800	     -3.54626800	      0.00000000	      5.00867628	     -3.48264554	     -4.95637940	      3.05174147	    -19.85738188	      1.47030796	      0.00000000	      2.46861775	     -9.14473359	     12.04422594	    153.49856942	     -8.73955351	     47.79682156	      4.52662090	     74.13683664	    142.22647108	      5.22884231	     38.03850939	     71.66649662	     85.78229009
      3.13333330	    -11.90122720	      1.60137403	      6.08039644	      1.95713660	      0.95786863	     -0.18863985	      2.20705110	     -7.86813122	    -14.90954125	      3.31652870	    -22.75619135	     -4.49200936	      0.00000000	      4.91764079	     -3.34258578	     -4.76380001	      2.81756222	    -21.04035385	     -0.38444084	      0.00000000	      2.98069029	     -9.20288695	     11.86519619	    155.49868297	     -8.29963495	     49.36973916	      8.86004324	     68.87349355	    143.60034898	      5.14124771	     37.24743038	     71.21917858	     86.16120480
      3.15000000	    -12.00748410	      1.38178543	      6.33118415	      1.96549594	      0.95811831	     -0.18965520	      2.11784040	     -7.94127710	    -13.95384289	      4.02734319	    -23.45258246	     -4.59727595	      0.00000000	      4.65165005	     -3.29615218	     -5.12505708	      2.96680647	    -21.12798953	     -1.25069822	      0.00000000	      2.93009155	     -8.97881202	     10.96125152	    157.78172000	     -6.57715094	     49.89682970	     10.90676762	     68.51581628	    144.97035736	      3.99913813	     37.41628215	     72.48756270	     86.43786016
      3.16666670	    -11.88654929	      1.17298139	      6.60048667	      1.97405034	      0.95985896	     -0.19086817	      1.81722789	     -7.98673316	    -12.72831174	      5.02255560	    -23.79385444	     -4.98863807	      0.00000000	      3.94198407	     -3.22781995	     -5.25777830	      2.98604432	    -20.99184587	     -2.15000903	      0.00000000	      2.91150340	     -8.57747697	      9.48811711	    158.77558921	     -5.26249663	     51.23446882	     14.27079076	     68.50557222	    145.14621538	      1.81157116	     38.40626452	     74.96376519	     87.07304878
      3.18333330	    -11.67906264	      0.92161961	      6.85820874	      1.98260414	      0.96070463	     -0.19276274	      1.51473467	     -7.98125072	    -11.60742578	      6.35907233	    -23.23097814	     -5.07676515	      0.00000000	      3.08116335	     -3.21727186	     -5.79951391	      3.09033634	    -20.36376950	     -2.73162752	      0.00000000	      2.91724103	     -8.03254289	      8.04869780	    159.37391733	     -4.35886818	     52.77026169	     17.67226853	     68.91909866	    144.38085700	     -0.12501899	     38.90601401	     77.58084573	     87.75509296
      3.20000000	    -11.32368506	      0.68040136	      7.08969446	      1.99061722	      0.95903421	     -0.19491447	      1.16489781	     -7.95707778	    -10.44220314	      8.01156588	    -22.07146703	     -5.20483221	      0.00000000	      2.00623504	     -3.21003176	     -6.50942352	      3.25386199	    -19.21670443	     -3.21757346	      0.00000000	      2.78558314	     -7.47039073	      6.61594959	    159.79139641	     -4.12652105	     54.51025200	     20.98816825	     69.72736979	    143.02574332	     -1.64619059	     38.99839834	     80.37381204	     88.46588712
      3.21666670	    -11.13246109	      0.36590682	      7.30549973	      1.99762630	      0.95558401	     -0.19653744	      1.14424975	     -7.83598880	     -9.52722966	      9.90834629	    -20.55368436	     -5.59152354	      0.00000000	      1.17856863	     -3.28122484	     -7.30605857	      3.59395628	    -17.37227842	     -3.67845146	      0.00000000	      2.95401383	     -7.09617446	      5.66213523	    160.30527211	     -5.60891053	     58.67694937	     25.20563662	     72.73667410	    140.86964837	     -1.64135567	     38.40987906	     82.45264407	     90.68944377
      3.23333330	    -10.48613110	     -0.03729265	      7.35735589	      2.00358637	      0.95174644	     -0.19693267	      0.96324091	     -7.46486557	     -8.64933394	     12.10824242	    -19.16321337	     -6.09283847	      0.00000000	     -0.13324201	     -3.57628933	     -8.25691863	      3.90057023	    -15.47378142	     -3.87574568	      0.00000000	      2.37482841	     -6.43348890	      4.45882565	    160.58686640	     -6.74852893	     60.20339908	     28.64883824	     74.61805044	    138.59675773	     -1.86004373	     37.63170438	     85.09161494	     91.92736161
      3.25000000	     -9.86918882	     -0.48140606	      7.31723690	      2.00929539	      0.94844687	     -0.19721470	      1.28726585	     -7.01956680	     -8.17714332	     14.90845595	    -17.76049770	     -7.08140223	      0.00000000	     -1.49698607	     -3.97416143	     -9.25253874	      4.09934490	    -13.49276834	     -4.07815692	      0.00000000	      1.89229738	     -5.95999759	      3.50286525	    160.32070851	     -8.83828401	     61.19022312	     33.57537229	     77.19935453	    135.82363626	     -0.77112468	     36.38886414	     86.54698022	     93.46067153
      3.26666670	     -9.03224094	     -1.06624839	      7.24535423	      2.01461166	      0.94400147	     -0.19791872	      1.95485722	     -6.35705095	     -7.77242502	     18.45448620	    -16.69259086	     -8.27297346	      0.00000000	     -2.94608172	     -4.65970970	     -9.91511756	      4.48030188	    -11.52861534	     -4.13160272	      0.00000000	      1.07076261	     -5.50642952	      2.51368154	    159.48704596	    -11.45668064	     60.39860062	     38.79137281	     80.10041692	    133.09593334	      0.56316658	     35.34810710	     87.58358312	     95.18741405
